<svg width="439" height="289" viewBox="0 0 439 289" fill="none" xmlns="http://www.w3.org/2000/svg">
<g clip-path="url(#clip0_3618_29905)">
<path d="M655.076 -13.0475L553.557 746.559C546.481 799.296 472.987 825.861 418.465 795.313L-125.039 490.608C-173.651 463.364 -177.397 406.376 -132.498 376.89L540.811 -65.0869C589.146 -96.8165 661.826 -63.666 655.023 -13.0431" fill="#0068FF"/>
<path d="M579.417 55.1732L500.558 645.226C495.061 686.192 437.972 706.828 395.62 683.098L-26.5675 446.407C-64.3291 425.244 -67.239 380.976 -32.362 358.072L490.656 14.7497C528.203 -9.89755 584.659 15.8534 579.375 55.1766" fill="#00ADFF"/>
<path d="M685.422 46.5326L606.564 636.586C601.108 677.548 543.977 698.187 501.625 674.458L79.4381 437.766C41.6765 416.604 38.7666 372.336 73.6436 349.431L596.662 6.10905C634.208 -18.5382 690.665 7.21275 685.381 46.536" fill="#44E4FF"/>
<path d="M836.858 25.7854L757.999 615.838C752.544 656.8 695.413 677.44 653.061 653.71L230.874 417.019C193.112 395.856 190.202 351.589 225.079 328.684L748.098 -14.6382C785.644 -39.2854 842.096 -13.568 836.858 25.7854Z" fill="#00266E"/>
</g>
<defs>
<clipPath id="clip0_3618_29905">
<rect width="438.814" height="288" fill="white" transform="translate(0 0.443359)"/>
</clipPath>
</defs>
</svg>
