<svg width="390" height="80" viewBox="0 0 390 80" fill="none" xmlns="http://www.w3.org/2000/svg">
<mask id="mask0_19426_24663" style="mask-type:alpha" maskUnits="userSpaceOnUse" x="0" y="0" width="480" height="81">
<rect y="0.200195" width="480" height="80" fill="#D9D9D9"/>
</mask>
<g mask="url(#mask0_19426_24663)">
<path d="M-36.067 52.7246L212.694 434.535C229.953 461.045 268.863 459.148 284.151 431.023L436.503 150.557C450.133 125.477 436.374 94.3566 409.041 88.4606L-0.793119 0.152469C-30.2144 -6.18764 -52.637 27.2781 -36.0428 52.7153" fill="#FFB206"/>
<path d="M-25.7968 58.8202L164.661 379.927C177.874 402.222 209.793 402.006 223.279 379.507L357.685 155.143C369.709 135.08 359.52 109.131 337.348 103.365L4.89496 16.9949C-18.9712 10.794 -38.4828 37.4198 -25.7767 58.8135" fill="#FF6900"/>
<path d="M-44.032 55.2356L60.4919 285.202C67.7417 301.168 89.232 303.357 99.96 289.207L206.884 148.091C216.449 135.472 211.502 117.269 197.009 111.768L-20.3075 29.3413C-35.9082 23.4237 -50.9932 39.9098 -44.0179 55.2325" fill="#0045B5"/>
</g>
</svg>
