<svg width="1324" height="625" viewBox="0 0 1324 625" fill="none" xmlns="http://www.w3.org/2000/svg">
<path d="M695.816 1190.04L102.64 794.54C61.4528 767.1 65.1418 706.377 109.457 683.025L551.369 450.319C590.886 429.5 639.355 451.561 648.082 494.35L778.775 1135.94C788.158 1181.99 735.35 1216.39 695.831 1190" fill="#FFD100"/>
<path d="M867.567 108.485L1048.24 -278.991C1060.77 -305.893 1097.1 -309.211 1114.96 -285.059L1292.96 -44.1989C1308.89 -22.6613 1300.2 8.06996 1275.63 17.1218L907.161 152.756C880.709 162.493 855.534 134.308 867.591 108.49" fill="#FFD100"/>
<path d="M505.989 233.628L317.782 175.553C304.715 171.527 300.915 155.155 310.814 145.485L409.538 49.0902C418.366 40.4679 432.938 42.4971 438.615 53.1425L523.702 212.773C529.81 224.232 518.531 237.495 505.99 233.617" fill="#FFD100"/>
</svg>
