<svg width="53" height="48" viewBox="0 0 53 48" fill="none" xmlns="http://www.w3.org/2000/svg">
<path d="M44.1548 8.43444L33.1713 19.0195C32.6625 19.5284 32.2112 19.6964 31.8128 19.6964C31.1311 19.6964 30.6799 19.2451 30.4542 18.5059L27.3963 8.08881C27.3387 7.86319 27.2811 7.63756 27.2811 7.40714C27.2811 6.61506 27.79 6.0486 28.6973 6.0486H43.6412C44.2652 6.0486 44.8317 6.49985 44.8317 7.18152C44.8317 7.52235 44.6061 7.9736 44.1548 8.42964M50.5491 0.566457C49.1329 0.39844 37.7558 0 32.3216 0C21.2853 0 13.0765 0.0576057 6.67747 6.73507C0 13.7006 0 22.8695 0 37.6982V45.907C0 47.1503 0.681668 48 2.0354 48C2.82748 48 3.45155 47.7744 4.58446 46.6415L28.4716 23.5464C28.8701 23.1479 29.3789 22.9223 29.7726 22.9223C30.5647 22.9223 31.2463 23.5464 31.2463 24.4488V46.3006C31.2463 47.3183 31.8704 48 32.8305 48H33.565C36.45 48 42.057 46.8095 46.7519 41.8314C52.4692 35.8308 52.7525 29.2637 52.7525 16.8113V2.83228C52.7525 1.58416 51.9028 0.739274 50.5443 0.566457" fill="#0043BC"/>
</svg>
