<svg width="36" height="44" viewBox="0 0 36 44" fill="none" xmlns="http://www.w3.org/2000/svg">
<path fill-rule="evenodd" clip-rule="evenodd" d="M16.7085 43.0048C17.0014 43.1151 17.2944 43.1705 17.5876 43.171C17.8807 43.1714 18.1739 43.1169 18.4672 43.0075C18.7605 42.898 19.0172 42.7518 19.2373 42.569C24.5941 37.8506 28.5946 33.4694 31.2389 29.4254C33.8832 25.38 35.2081 21.5985 35.2135 18.081C35.2219 12.585 33.4604 8.20374 29.9288 4.93732C26.3988 1.6709 22.3071 0.0341267 17.6538 0.0269865C13.0004 0.0198463 8.90375 1.64406 5.36369 4.89963C1.82216 8.15519 0.0471784 12.531 0.0387451 18.027C0.0333478 21.5445 1.3466 25.33 3.97849 29.3836C6.61038 33.4356 10.5974 37.8291 15.9397 42.5639C16.1592 42.7474 16.4155 42.8944 16.7085 43.0048Z" fill="#FFD100"/>
<path d="M24.5011 12.2429L20.3308 16.2201C20.1376 16.4113 19.9664 16.4743 19.8154 16.4741C19.5569 16.4737 19.3861 16.3036 19.301 16.0252L18.1477 12.1031C18.126 12.0181 18.1043 11.9332 18.1044 11.8465C18.1049 11.5484 18.2981 11.3355 18.6421 11.336L24.3077 11.3447C24.5443 11.3451 24.7588 11.5152 24.7585 11.7718C24.7583 11.9 24.6725 12.0697 24.5011 12.2411M26.9299 9.28556C26.3931 9.2215 22.0799 9.06493 20.0197 9.06177C15.8355 9.05535 12.7233 9.07226 10.2934 11.5816C7.75771 14.1991 7.75242 17.6498 7.74386 23.2304L7.73912 26.3198C7.7384 26.7877 7.99635 27.1079 8.50959 27.1086C8.80989 27.1091 9.04662 27.0246 9.47679 26.5989L18.5464 17.9211C18.6977 17.7713 18.8908 17.6867 19.04 17.6869C19.3403 17.6874 19.5984 17.9227 19.5979 18.2623L19.5853 26.4861C19.5847 26.8691 19.8209 27.126 20.1849 27.1266L20.4633 27.127C21.5572 27.1287 23.6836 26.6839 25.4664 24.8131C27.6375 22.5582 27.7487 20.0869 27.7559 15.4005L27.764 10.1396C27.7647 9.66985 27.443 9.35138 26.9281 9.28555" fill="#0043BC"/>
</svg>
