<svg width="149" height="34" viewBox="0 0 149 34" fill="none" xmlns="http://www.w3.org/2000/svg">
<path d="M45.2879 32.5225C44.191 32.2035 43.1769 31.7929 42.2441 31.2938L43.2718 27.252C44.5059 27.5298 45.6978 27.6687 46.8505 27.6687C48.4131 27.6687 49.5582 27.2871 50.2845 26.5239C51.0108 25.7607 51.374 24.5732 51.374 22.9614V4.08789H57.6665V22.9614C57.6665 25.0998 57.2626 26.9269 56.4535 28.4395C55.6443 29.9537 54.5473 31.0923 53.1626 31.8555C51.7778 32.6187 50.2348 33.0018 48.5351 33.0018C47.4653 33.0018 46.3819 32.8415 45.2864 32.5225H45.2879Z" fill="#0045B5"/>
<path d="M65.1549 31.564C63.4537 30.6054 62.1729 29.2928 61.3095 27.6275C60.4461 25.9607 60.0137 24.0726 60.0137 21.9616C60.0137 19.7118 60.4793 17.7336 61.412 16.0256C62.3432 14.3176 63.612 13.0049 65.2167 12.0891C66.8215 11.1718 68.6237 10.7139 70.6247 10.7139C72.5173 10.7139 74.1883 11.0756 75.6424 11.7961C77.095 12.5196 78.2191 13.5315 79.0147 14.8381C79.8103 16.1431 80.2066 17.671 80.2066 19.4203C80.2066 20.6154 80.0423 21.8227 79.7139 23.0454H66.0997C66.3468 24.6847 67.0309 25.9348 68.1565 26.7956C69.2806 27.6565 70.8161 28.0869 72.7629 28.0869C74.1612 28.0869 75.9016 27.9206 77.9855 27.5878L78.6018 31.2542C76.0237 32.4203 73.5841 33.0049 71.2802 33.0049C68.9762 33.0049 66.8516 32.5256 65.1519 31.5671L65.1549 31.564ZM74.1612 18.7944C74.1341 17.6283 73.8041 16.7323 73.1742 16.1065C72.5429 15.4822 71.693 15.1693 70.6247 15.1693C69.5006 15.1693 68.5679 15.5097 67.828 16.1905C67.0882 16.8712 66.5668 17.8649 66.2655 19.1699L74.1627 18.7944H74.1612Z" fill="#0045B5"/>
<path d="M86.5858 30.7301C85.2959 29.2159 84.6525 27.195 84.6525 24.6689V16.1701H80.7031V11.2537H84.6525L86.0508 5.12988H90.7401V11.2537H97.1968V16.1701H90.7401V24.3773C90.7401 25.6549 90.9796 26.5784 91.4603 27.1477C91.9395 27.717 92.7562 28.0009 93.9074 28.0009C94.9772 28.0009 96.0878 27.8895 97.239 27.6682L98.2259 31.4185C96.3334 32.4732 94.2766 33.0013 92.057 33.0013C89.6988 33.0013 87.8756 32.2442 86.5873 30.7301H86.5858Z" fill="#0045B5"/>
<path d="M109.275 31.2922C107.231 30.1535 105.642 28.4806 104.504 26.2719C103.366 24.0633 102.797 21.4044 102.797 18.2936C102.797 15.3767 103.394 12.8018 104.585 10.5656C105.779 8.33105 107.403 6.60168 109.46 5.37906C111.517 4.15644 113.806 3.5459 116.328 3.5459C118.988 3.5459 121.338 4.11523 123.382 5.2539C125.423 6.39257 127.015 8.06546 128.152 10.2741C129.29 12.4828 129.859 15.1554 129.859 18.2936C129.859 21.2105 129.263 23.7794 128.071 26.0018C126.879 28.2242 125.253 29.9459 123.196 31.1685C121.139 32.3911 118.851 33.0017 116.328 33.0017C113.669 33.0017 111.316 32.4323 109.275 31.2937V31.2922ZM111.208 25.231C112.51 26.855 114.217 27.6686 116.328 27.6686C118.439 27.6686 120.146 26.8489 121.448 25.2111C122.75 23.5733 123.401 21.267 123.401 18.2952C123.401 15.3233 122.75 12.9422 121.448 11.3166C120.145 9.69257 118.439 8.87902 116.328 8.87902C114.217 8.87902 112.51 9.69867 111.208 11.3365C109.905 12.9758 109.254 15.2943 109.254 18.2936C109.254 21.2929 109.905 23.6054 111.208 25.231Z" fill="#0045B5"/>
<path d="M132.534 11.2529H138.622V32.4587H132.534V11.2529Z" fill="#0045B5"/>
<path d="M141.914 2.2959H148.002V32.4599H141.914V2.2959Z" fill="#0045B5"/>
<path d="M33.6955 0.381591C32.7523 0.267114 25.1684 0 21.546 0C14.1882 0 8.71696 0.0381591 4.45266 4.54857C0 9.24977 0 15.4422 0 25.4567V30.9989C0 31.84 0.453553 32.4139 1.35915 32.4139C1.88805 32.4139 2.30242 32.2612 3.05734 31.4965L18.9814 15.9017C19.2451 15.6346 19.5857 15.4819 19.8494 15.4819C20.3783 15.4819 20.8303 15.9017 20.8303 16.5137V31.2676C20.8303 31.956 21.2447 32.4139 21.8866 32.4139H22.3778C24.302 32.4139 28.0374 31.611 31.1701 28.2469C34.9809 24.1959 35.1692 19.7618 35.1692 11.3516V1.91101C35.1692 1.06998 34.6026 0.496068 33.6971 0.381591M29.4327 5.69487L22.1126 12.8428C21.7736 13.1863 21.4707 13.3023 21.207 13.3023C20.7535 13.3023 20.4521 12.997 20.3014 12.4994L18.2642 5.46591C18.2265 5.31327 18.1888 5.16064 18.1888 5.00648C18.1888 4.47072 18.5279 4.08913 19.1321 4.08913H29.0937C29.5081 4.08913 29.8863 4.3944 29.8863 4.85384C29.8863 5.08279 29.7356 5.38959 29.4327 5.69487Z" fill="#0045B5"/>
</svg>
