<svg width="51" height="32" viewBox="0 0 51 32" fill="none" xmlns="http://www.w3.org/2000/svg">
<path d="M1.44043 31.773C0.921307 31.6233 0.4414 31.4305 0 31.1963L0.486324 29.299C1.07034 29.4294 1.63439 29.4946 2.1799 29.4946C2.91937 29.4946 3.46132 29.3155 3.80502 28.9573C4.14873 28.599 4.32059 28.0416 4.32059 27.285V18.4258H7.29843V27.285C7.29843 28.2888 7.10732 29.1464 6.7244 29.8564C6.34147 30.5672 5.82234 31.1017 5.16702 31.4599C4.51169 31.8182 3.78149 31.998 2.97713 31.998C2.47084 31.998 1.95813 31.9228 1.43972 31.773H1.44043Z" fill="#0045B5"/>
<path d="M10.8422 31.3232C10.0372 30.8733 9.43103 30.2571 9.02243 29.4754C8.61384 28.693 8.40918 27.8067 8.40918 26.8158C8.40918 25.7598 8.62952 24.8312 9.07092 24.0295C9.51161 23.2277 10.112 22.6116 10.8715 22.1817C11.6309 21.7511 12.4838 21.5361 13.4307 21.5361C14.3264 21.5361 15.1172 21.7059 15.8053 22.0441C16.4927 22.3837 17.0247 22.8587 17.4012 23.4721C17.7777 24.0846 17.9652 24.8018 17.9652 25.6229C17.9652 26.1839 17.8875 26.7506 17.7321 27.3245H11.2893C11.4063 28.094 11.73 28.6808 12.2627 29.0849C12.7947 29.489 13.5213 29.6911 14.4426 29.6911C15.1043 29.6911 15.928 29.613 16.9142 29.4568L17.2058 31.1778C15.9857 31.7251 14.8312 31.9996 13.7409 31.9996C12.6506 31.9996 11.6452 31.7746 10.8408 31.3246L10.8422 31.3232ZM15.1043 25.3292C15.0915 24.7818 14.9353 24.3612 14.6373 24.0674C14.3385 23.7744 13.9363 23.6275 13.4307 23.6275C12.8988 23.6275 12.4574 23.7873 12.1072 24.1069C11.7571 24.4264 11.5104 24.8928 11.3678 25.5054L15.1051 25.3292H15.1043Z" fill="#0045B5"/>
<path d="M20.9831 30.9318C20.3727 30.221 20.0682 29.2724 20.0682 28.0867V24.0973H18.1992V21.7895H20.0682L20.73 18.915H22.9491V21.7895H26.0047V24.0973H22.9491V27.9498C22.9491 28.5495 23.0625 28.983 23.2899 29.2502C23.5167 29.5175 23.9032 29.6507 24.448 29.6507C24.9543 29.6507 25.4798 29.5984 26.0246 29.4945L26.4917 31.2549C25.5961 31.75 24.6227 31.9979 23.5723 31.9979C22.4563 31.9979 21.5935 31.6425 20.9838 30.9318H20.9831Z" fill="#0045B5"/>
<path d="M31.7208 31.196C30.7539 30.6615 30.0016 29.8762 29.4632 28.8395C28.9248 27.8028 28.6553 26.5546 28.6553 25.0945C28.6553 23.7253 28.9377 22.5166 29.5017 21.4669C30.0665 20.418 30.8352 19.6063 31.8085 19.0324C32.7819 18.4585 33.8651 18.1719 35.0588 18.1719C36.3174 18.1719 37.4298 18.4391 38.3967 18.9736C39.363 19.5081 40.116 20.2934 40.6544 21.3301C41.1927 22.3668 41.4623 23.6214 41.4623 25.0945C41.4623 26.4637 41.1799 27.6695 40.6159 28.7127C40.0518 29.7559 39.2824 30.5641 38.309 31.1379C37.3357 31.7118 36.2525 31.9984 35.0588 31.9984C33.8002 31.9984 32.6871 31.7312 31.7208 31.1967V31.196ZM32.6357 28.3509C33.2518 29.1132 34.0597 29.4951 35.0588 29.4951C36.0578 29.4951 36.8657 29.1103 37.4818 28.3415C38.098 27.5728 38.406 26.4902 38.406 25.0952C38.406 23.7002 38.098 22.5825 37.4818 21.8195C36.865 21.0571 36.0578 20.6752 35.0588 20.6752C34.0597 20.6752 33.2518 21.06 32.6357 21.8288C32.0189 22.5983 31.7108 23.6866 31.7108 25.0945C31.7108 26.5023 32.0189 27.5878 32.6357 28.3509Z" fill="#0045B5"/>
<path d="M42.7285 21.7891H45.6094V31.7431H42.7285V21.7891Z" fill="#0045B5"/>
<path d="M47.167 17.585H50.0479V31.744H47.167V17.585Z" fill="#0045B5"/>
<path d="M32.6482 0.179119C32.2018 0.125383 28.6128 0 26.8986 0C23.4166 0 20.8273 0.0179119 18.8093 2.1351C16.7021 4.34185 16.7021 7.24859 16.7021 11.9494V14.5509C16.7021 14.9457 16.9168 15.2151 17.3454 15.2151C17.5956 15.2151 17.7917 15.1434 18.149 14.7845L25.6849 7.46425C25.8097 7.33887 25.9708 7.26722 26.0956 7.26722C26.3459 7.26722 26.5598 7.46425 26.5598 7.75156V14.677C26.5598 15.0002 26.7559 15.2151 27.0597 15.2151H27.2922C28.2028 15.2151 29.9705 14.8382 31.453 13.2591C33.2564 11.3576 33.3456 9.27622 33.3456 5.32844V0.897029C33.3456 0.50225 33.0774 0.232855 32.6489 0.179119M30.6308 2.67317L27.1667 6.02843C27.0062 6.18964 26.8629 6.24409 26.7381 6.24409C26.5235 6.24409 26.3809 6.1008 26.3095 5.86723L25.3455 2.5657C25.3276 2.49406 25.3098 2.42241 25.3098 2.35004C25.3098 2.09856 25.4702 1.91944 25.7562 1.91944H30.4704C30.6665 1.91944 30.8455 2.06274 30.8455 2.2784C30.8455 2.38587 30.7742 2.52988 30.6308 2.67317Z" fill="#0045B5"/>
</svg>
