<svg width="131" height="203" viewBox="0 0 131 203" fill="none" xmlns="http://www.w3.org/2000/svg">
<path d="M125.786 1.96862L126.818 0.255069L130.245 2.31783L129.214 4.03138L125.786 1.96862ZM61.5923 112.5L63.3058 113.531L62.7625 114.434L61.7107 114.496L61.5923 112.5ZM2.59229 116H0.592285V114.115L2.47385 114.004L2.59229 116ZM4.59229 201C4.59229 202.105 3.69685 203 2.59229 203C1.48772 203 0.592285 202.105 0.592285 201H4.59229ZM127.517 6.8494C126.948 7.79576 125.719 8.10118 124.772 7.53156C123.826 6.96195 123.521 5.733 124.09 4.78663L127.517 6.8494ZM119.244 12.8381C119.814 11.8917 121.043 11.5863 121.989 12.1559C122.935 12.7256 123.241 13.9545 122.671 14.9009L119.244 12.8381ZM119.279 20.5369C118.709 21.4833 117.48 21.7887 116.534 21.2191C115.588 20.6494 115.282 19.4205 115.852 18.4741L119.279 20.5369ZM111.006 26.5256C111.575 25.5792 112.804 25.2738 113.751 25.8434C114.697 26.4131 115.002 27.642 114.433 28.5884L111.006 26.5256ZM111.04 34.2244C110.471 35.1708 109.242 35.4762 108.296 34.9066C107.349 34.337 107.044 33.108 107.613 32.1616L111.04 34.2244ZM102.767 40.2131C103.337 39.2667 104.566 38.9613 105.512 39.5309C106.459 40.1006 106.764 41.3295 106.194 42.2759L102.767 40.2131ZM102.802 47.9119C102.232 48.8583 101.003 49.1637 100.057 48.5941C99.1107 48.0245 98.8053 46.7955 99.3749 45.8491L102.802 47.9119ZM94.5287 53.9006C95.0984 52.9542 96.3273 52.6488 97.2737 53.2184C98.22 53.7881 98.5255 55.017 97.9558 55.9634L94.5287 53.9006ZM94.5635 61.5994C93.9939 62.5458 92.765 62.8512 91.8186 62.2816C90.8722 61.712 90.5668 60.483 91.1364 59.5366L94.5635 61.5994ZM86.2903 67.5881C86.8599 66.6417 88.0888 66.3363 89.0352 66.9059C89.9816 67.4756 90.287 68.7045 89.7174 69.6509L86.2903 67.5881ZM86.3251 75.2869C85.7555 76.2333 84.5265 76.5387 83.5801 75.9691C82.6338 75.3995 82.3284 74.1705 82.898 73.2241L86.3251 75.2869ZM78.0518 81.2756C78.6214 80.3292 79.8504 80.0238 80.7967 80.5934C81.7431 81.1631 82.0485 82.392 81.4789 83.3384L78.0518 81.2756ZM78.0866 88.9744C77.517 89.9208 76.288 90.2262 75.3417 89.6566C74.3953 89.087 74.0899 87.858 74.6595 86.9116L78.0866 88.9744ZM69.8133 94.9631C70.383 94.0167 71.6119 93.7113 72.5583 94.2809C73.5046 94.8506 73.8101 96.0795 73.2404 97.0259L69.8133 94.9631ZM69.8481 102.662C69.2785 103.608 68.0496 103.914 67.1032 103.344C66.1568 102.774 65.8514 101.546 66.421 100.599L69.8481 102.662ZM61.5749 108.651C62.1445 107.704 63.3734 107.399 64.3198 107.968C65.2662 108.538 65.5716 109.767 65.002 110.713L61.5749 108.651ZM57.6617 114.737C56.5591 114.802 55.6122 113.961 55.5468 112.859C55.4814 111.756 56.3222 110.809 57.4248 110.744L57.6617 114.737ZM45.8562 111.43C46.9588 111.365 47.9057 112.205 47.9711 113.308C48.0365 114.411 47.1957 115.358 46.0931 115.423L45.8562 111.43ZM37.995 115.903C36.8924 115.969 35.9455 115.128 35.8801 114.025C35.8147 112.923 36.6555 111.976 37.7582 111.91L37.995 115.903ZM26.1895 112.597C27.2922 112.531 28.2391 113.372 28.3045 114.475C28.3699 115.577 27.529 116.524 26.4264 116.59L26.1895 112.597ZM18.3284 117.07C17.2257 117.135 16.2789 116.295 16.2134 115.192C16.148 114.089 16.9889 113.142 18.0915 113.077L18.3284 117.07ZM6.52287 113.763C7.6255 113.698 8.57238 114.539 8.63779 115.641C8.7032 116.744 7.86237 117.691 6.75974 117.756L6.52287 113.763ZM4.59229 119.5C4.59229 120.605 3.69685 121.5 2.59229 121.5C1.48772 121.5 0.592285 120.605 0.592285 119.5H4.59229ZM0.592285 129.5C0.592285 128.395 1.48772 127.5 2.59229 127.5C3.69685 127.5 4.59229 128.395 4.59229 129.5H0.592285ZM4.59229 136.5C4.59229 137.605 3.69685 138.5 2.59229 138.5C1.48772 138.5 0.592285 137.605 0.592285 136.5H4.59229ZM0.592285 146.5C0.592285 145.395 1.48772 144.5 2.59229 144.5C3.69685 144.5 4.59229 145.395 4.59229 146.5H0.592285ZM4.59229 153.5C4.59229 154.605 3.69685 155.5 2.59229 155.5C1.48772 155.5 0.592285 154.605 0.592285 153.5H4.59229ZM0.592285 163.5C0.592285 162.395 1.48772 161.5 2.59229 161.5C3.69685 161.5 4.59229 162.395 4.59229 163.5H0.592285ZM4.59229 170.5C4.59229 171.605 3.69685 172.5 2.59229 172.5C1.48772 172.5 0.592285 171.605 0.592285 170.5H4.59229ZM0.592285 180.5C0.592285 179.395 1.48772 178.5 2.59229 178.5C3.69685 178.5 4.59229 179.395 4.59229 180.5H0.592285ZM4.59229 187.5C4.59229 188.605 3.69685 189.5 2.59229 189.5C1.48772 189.5 0.592285 188.605 0.592285 187.5H4.59229ZM0.592285 197.5C0.592285 196.395 1.48772 195.5 2.59229 195.5C3.69685 195.5 4.59229 196.395 4.59229 197.5H0.592285ZM129.214 4.03138L127.517 6.8494L124.09 4.78663L125.786 1.96862L129.214 4.03138ZM122.671 14.9009L119.279 20.5369L115.852 18.4741L119.244 12.8381L122.671 14.9009ZM114.433 28.5884L111.04 34.2244L107.613 32.1616L111.006 26.5256L114.433 28.5884ZM106.194 42.2759L102.802 47.9119L99.3749 45.8491L102.767 40.2131L106.194 42.2759ZM97.9558 55.9634L94.5635 61.5994L91.1364 59.5366L94.5287 53.9006L97.9558 55.9634ZM89.7174 69.6509L86.3251 75.2869L82.898 73.2241L86.2903 67.5881L89.7174 69.6509ZM81.4789 83.3384L78.0866 88.9744L74.6595 86.9116L78.0518 81.2756L81.4789 83.3384ZM73.2404 97.0259L69.8481 102.662L66.421 100.599L69.8133 94.9631L73.2404 97.0259ZM65.002 110.713L63.3058 113.531L59.8787 111.469L61.5749 108.651L65.002 110.713ZM61.7107 114.496L57.6617 114.737L57.4248 110.744L61.4738 110.504L61.7107 114.496ZM46.0931 115.423L37.995 115.903L37.7582 111.91L45.8562 111.43L46.0931 115.423ZM26.4264 116.59L18.3284 117.07L18.0915 113.077L26.1895 112.597L26.4264 116.59ZM6.75974 117.756L2.71072 117.996L2.47385 114.004L6.52287 113.763L6.75974 117.756ZM4.59229 116V119.5H0.592285V116H4.59229ZM4.59229 129.5V136.5H0.592285V129.5H4.59229ZM4.59229 146.5V153.5H0.592285V146.5H4.59229ZM4.59229 163.5V170.5H0.592285V163.5H4.59229ZM4.59229 180.5V187.5H0.592285V180.5H4.59229ZM4.59229 197.5V201H0.592285V197.5H4.59229Z" fill="url(#paint0_linear_1340_27765)"/>
<defs>
<linearGradient id="paint0_linear_1340_27765" x1="114.5" y1="3" x2="5.09228" y2="187" gradientUnits="userSpaceOnUse">
<stop stop-color="#44E4FF"/>
<stop offset="0.0001" stop-color="#0068FF"/>
<stop offset="0.910645" stop-color="#0068FF" stop-opacity="0"/>
</linearGradient>
</defs>
</svg>
