<svg width="50" height="50" viewBox="0 0 50 50" fill="none" xmlns="http://www.w3.org/2000/svg">
<ellipse opacity="0.4" cx="25.2421" cy="25.2432" rx="17.5" ry="17.5" transform="rotate(-37.3971 25.2421 25.2432)" fill="#44E4FF"/>
<path d="M20.971 17.3026L36.5758 25.5712C37.5618 26.0935 37.9472 27.2703 37.4357 28.1985C37.3073 28.4281 37.1327 28.6287 36.9231 28.7875C36.7134 28.9464 36.4731 29.0602 36.2173 29.1217L31.0904 30.3981C30.1073 30.6353 29.2583 31.2525 28.7292 32.1143L26.0878 36.4813C25.5374 37.3898 24.3099 37.6727 23.3453 37.1148C23.1121 36.9822 22.9075 36.8046 22.7434 36.5924C22.5793 36.3802 22.4589 36.1375 22.3891 35.8785L18.0956 19.3907C17.8241 18.3497 18.4767 17.3219 19.5541 17.0968C20.0309 16.9973 20.5344 17.0707 20.9712 17.3015L20.971 17.3026Z" fill="#0068FF"/>
</svg>
